<svg xmlns="http://www.w3.org/2000/svg" xmlns:xlink="http://www.w3.org/1999/xlink" width="1080" height="1080" viewBox="0 0 1080 1080" xml:space="preserve"><desc>Created with Fabric.js 5.2.4</desc><defs></defs><g transform="matrix(1 0 0 1 540 540)" id="601a769c-97c2-487d-8f80-c8458f29cdcb"></g><g transform="matrix(1 0 0 1 540 540)" id="01270c4e-c4bb-45d4-a003-9cfcf65e07e9"><rect style="stroke: none; stroke-width: 1; stroke-dasharray: none; stroke-linecap: butt; stroke-dashoffset: 0; stroke-linejoin: miter; stroke-miterlimit: 4; fill: rgb(255,255,255); fill-rule: nonzero; opacity: 1;" x="-540" y="-540" rx="0" ry="0" width="1080" height="1080"></rect></g><g transform="matrix(2.76 0 0 2.76 553.44 550.07)"><path style="stroke: rgb(0,0,0); stroke-width: 0; stroke-dasharray: none; stroke-linecap: butt; stroke-dashoffset: 0; stroke-linejoin: miter; stroke-miterlimit: 4; fill: rgb(244,108,51); fill-rule: nonzero; opacity: 1;" transform=" translate(-200, -200)" d="M 0 200 L 0 400 L 200 400 L 400 400 L 400 200 L 400 0 L 200 0 L 0 0 L 0 200 M 254.6 127.6 L 259.4 132.453 L 242.8 148.843 C 223.595 167.805 222.961 168.256 218.729 165.977 C 217.293 165.203 196 144.457 196 143.831 C 196 143.28 205.023 134.667 205.794 134.482 C 206.064 134.417 208.359 136.937 210.893 140.082 C 213.428 143.227 216.812 147.42 218.414 149.4 C 221.983 153.812 221.549 153.836 225.649 149 C 227.514 146.8 233.409 139.825 238.748 133.501 C 246.786 123.979 248.571 122.066 249.128 122.374 C 249.497 122.579 251.96 124.931 254.6 127.6 M 185.476 136.884 C 186.147 137.625 186.215 139.077 186.4 156.81 L 186.6 175.936 L 187.57 176.968 C 188.629 178.096 189.897 178.252 192.6 177.588 C 214.863 172.116 234.778 176.702 242.187 189.006 C 246.94 196.9 246.924 196.735 247.093 239.511 L 247.239 276.423 L 246.05 277.611 L 244.862 278.8 L 229.4 278.8 L 213.938 278.8 L 212.769 277.631 L 211.6 276.462 L 211.597 244.331 C 211.593 205.23 211.619 205.455 206.837 202.931 C 203.813 201.334 193.825 201.953 188.681 204.055 C 186.311 205.024 186.4 203.547 186.4 241.799 L 186.4 276.838 L 185.342 277.819 L 184.283 278.8 L 169.515 278.8 C 160.152 278.8 154.466 278.649 153.978 278.388 C 151.896 277.274 152 280.978 152 207.789 L 152 139.938 L 153.132 138.807 C 154.437 137.502 154.682 137.463 166.2 136.773 C 185.393 135.624 184.33 135.617 185.476 136.884 M 311 157.219 C 331.227 158.95 342.271 167.959 345.861 185.656 C 346.698 189.785 347.192 255.687 346.4 257.6 C 344.13 263.081 309.616 268.507 290.144 266.445 C 270.354 264.349 258.985 256.888 255.314 243.587 C 253.881 238.395 254.448 226.187 256.344 221.4 C 262.392 206.135 280.975 198.937 304.783 202.64 C 310.912 203.593 312.306 202.36 311.884 196.358 C 311.347 188.725 308.775 185.675 301.758 184.349 C 296.548 183.364 282.434 184.639 274.473 186.813 C 270.031 188.026 269.001 187.391 267.637 182.6 C 266.592 178.928 264 167.93 264 167.166 C 264 162.982 285.653 157.486 304.6 156.861 C 305.48 156.832 308.36 156.993 311 157.219 M 113 158.21 C 129.287 161.123 138.243 169.575 141.668 185.267 C 142.746 190.208 143.372 254.853 142.365 257.285 C 141.143 260.235 127.025 264.178 111.857 265.805 C 72.928 269.982 50.746 258.487 50.807 234.167 C 50.867 210.345 70.4 198.099 101.071 202.654 C 107.16 203.558 107.968 202.942 107.987 197.373 C 108.034 183.991 96.552 180.704 71.273 186.863 C 65.556 188.255 65.536 188.233 62.807 177.387 C 59.824 165.534 59.866 165.362 66.292 163.252 C 82.414 157.96 100.613 155.995 113 158.21 M 94.887 220.826 C 83.672 222.796 79.828 238.389 89.35 243.283 C 94.147 245.748 104.64 245.797 107.072 243.365 C 108.533 241.904 108.526 223.834 107.064 222.46 C 105.402 220.899 99.206 220.067 94.887 220.826 M 295.811 221.695 C 287.287 224.661 284.753 238.046 291.805 242.856 C 296.748 246.227 309.21 246.371 311.217 243.08 C 312.568 240.864 312.397 224.533 311.006 222.88 C 309.122 220.641 300.722 219.986 295.811 221.695" stroke-linecap="round"></path></g><g transform="matrix(1 0 0 1 841.82 828.28)" style="" id="f680b1b5-33cf-4271-bb28-22db7fb9186c">		<text xml:space="preserve" font-family="Raleway" font-size="105" font-style="normal" font-weight="900" style="stroke: none; stroke-width: 1; stroke-dasharray: none; stroke-linecap: butt; stroke-dashoffset: 0; stroke-linejoin: miter; stroke-miterlimit: 4; fill: rgb(255,255,255); fill-rule: nonzero; opacity: 1; white-space: pre;"><tspan x="-156.55" y="32.98">TAMIL</tspan></text></g></svg>